<?xml version="1.0" encoding="UTF-8"?>
<svg xmlns="http://www.w3.org/2000/svg" viewBox="0 0 100 100" role="img" aria-label="Pullim OS">
  <title>풀림 OS</title>
  <rect x="4" y="4" width="92" height="92" rx="18" fill="#0362DA"/>
  <!-- pullim.ai 물결(wave) mark, recolored white on the OS blue tile -->
  <g transform="translate(26,27)" fill="#FFFFFF">
    <path d="M25.946 44.938c-.664.845-2.021.375-2.021-.698V33.937a2.26 2.26 0 0 0-2.262-2.262H10.287c-.92 0-1.456-1.04-.92-1.788l7.48-10.471c1.07-1.497 0-3.578-1.842-3.578H1.237c-.92 0-1.456-1.04-.92-1.788L10.013.474c.214-.297.556-.474.92-.474h28.894c.92 0 1.456 1.04.92 1.788l-7.48 10.471c-1.07 1.498 0 3.579 1.842 3.579h11.377c.943 0 1.473 1.088.89 1.83L25.947 44.94z"/>
  </g>
  <!-- lemon accent (brand signature) -->
  <rect x="74" y="14" width="9" height="9" fill="#E6FF4C"/>
</svg>
